<svg width="60" height="60" viewBox="0 0 60 60" fill="none" xmlns="http://www.w3.org/2000/svg">
<g id="Group 6">
<circle id="Ellipse 5" cx="30" cy="30" r="30" fill="#00AD45"/>
<path id="Arrow 1" d="M31.5 19C31.5 18.1716 30.8284 17.5 30 17.5C29.1716 17.5 28.5 18.1716 28.5 19L31.5 19ZM28.9393 42.0607C29.5251 42.6464 30.4749 42.6464 31.0607 42.0607L40.6066 32.5147C41.1924 31.9289 41.1924 30.9792 40.6066 30.3934C40.0208 29.8076 39.0711 29.8076 38.4853 30.3934L30 38.8787L21.5147 30.3934C20.9289 29.8076 19.9792 29.8076 19.3934 30.3934C18.8076 30.9792 18.8076 31.9289 19.3934 32.5147L28.9393 42.0607ZM28.5 19L28.5 41L31.5 41L31.5 19L28.5 19Z" fill="white"/>
</g>
</svg>
