<svg width="40" height="32" viewBox="0 0 40 32" fill="none" xmlns="http://www.w3.org/2000/svg">
<path d="M5.6 5C6.485 5 7.2 5.70223 7.2 6.57143V19.1429H18.4V11.2857C18.4 10.4165 19.115 9.71429 20 9.71429H31.2C33.85 9.71429 36 11.8259 36 14.4286V25.4286C36 26.2978 35.285 27 34.4 27C33.515 27 32.8 26.2978 32.8 25.4286V23.8571H7.2V25.4286C7.2 26.2978 6.485 27 5.6 27C4.715 27 4 26.2978 4 25.4286V6.57143C4 5.70223 4.715 5 5.6 5ZM12.8 9.71429C13.8609 9.71429 14.8783 10.1282 15.6284 10.8649C16.3786 11.6017 16.8 12.6009 16.8 13.6429C16.8 14.6848 16.3786 15.684 15.6284 16.4208C14.8783 17.1575 13.8609 17.5714 12.8 17.5714C11.7391 17.5714 10.7217 17.1575 9.97157 16.4208C9.22143 15.684 8.8 14.6848 8.8 13.6429C8.8 12.6009 9.22143 11.6017 9.97157 10.8649C10.7217 10.1282 11.7391 9.71429 12.8 9.71429Z" fill="#616161"/>
</svg>
