<svg width="89" height="80" viewBox="0 0 89 80" fill="none" xmlns="http://www.w3.org/2000/svg">
<path d="M44.5 80C43.165 80 41.8864 79.76 40.6641 79.28C39.4418 78.8 38.3471 78.077 37.38 77.1111L7.565 47.2222C6.52667 46.1852 5.5803 45.0548 4.7259 43.8311C3.8715 42.6074 3.1506 41.3304 2.5632 40H43.9482C45.209 40 46.2666 40.4267 47.121 41.28C47.9754 42.1333 48.4012 43.1881 48.3982 44.4444C48.3982 45.7037 47.971 46.76 47.1166 47.6133C46.2622 48.4667 45.2061 48.8918 43.9482 48.8889C42.9099 48.8889 41.9828 48.6118 41.167 48.0578C40.3511 47.5037 39.8319 46.7067 39.6094 45.6667L31.0432 48C31.859 50.8889 33.4536 53.2415 35.8269 55.0578C38.2003 56.8741 40.9074 57.7807 43.9482 57.7778C47.6565 57.7778 50.8086 56.4815 53.4044 53.8889C56.0003 51.2963 57.2967 48.1481 57.2937 44.4444C57.2937 43.6296 57.2196 42.8696 57.0712 42.1644C56.9229 41.4593 56.7375 40.7378 56.515 40H61.7437C65.4521 40 68.6042 38.7037 71.2 36.1111C73.7958 33.5185 75.0938 30.3704 75.0938 26.6667C75.0938 22.963 73.7958 19.8148 71.2 17.2222C68.6042 14.6296 65.4521 13.3333 61.7437 13.3333C58.7029 13.3333 55.9958 14.2415 53.6225 16.0578C51.2492 17.8741 49.6546 20.2252 48.8387 23.1111L57.405 25.4444C57.6275 24.4074 58.1467 23.6118 58.9625 23.0578C59.7783 22.5037 60.7054 22.2252 61.7437 22.2222C63.0046 22.2222 64.0622 22.6489 64.9166 23.5022C65.771 24.3555 66.1967 25.4104 66.1937 26.6667C66.1937 27.9259 65.7665 28.9822 64.9121 29.8355C64.0577 30.6889 63.0016 31.1141 61.7437 31.1111H0.2225C0.148333 30.5185 0.09345 29.9807 0.05785 29.4978C0.02225 29.0148 0.00296667 28.48 0 27.8933C0 20.2607 2.48458 13.7037 7.45375 8.22222C12.4229 2.74074 18.6158 0 26.0325 0C29.5925 0 32.9493 0.703703 36.1028 2.11111C39.2564 3.51852 42.0555 5.48148 44.5 8C46.8733 5.48148 49.6368 3.51852 52.7903 2.11111C55.9439 0.703703 59.2992 0 62.8562 0C70.2729 0 76.4851 2.74074 81.4928 8.22222C86.5006 13.7037 89.003 20.2222 89 27.7778C89 31.4074 88.3696 34.8889 87.1087 38.2222C85.8479 41.5555 83.9567 44.5185 81.435 47.1111L51.5087 77.1111C50.5446 78.0741 49.4692 78.797 48.2825 79.28C47.0958 79.7629 45.835 80.0029 44.5 80Z" fill="white"/>
</svg>
