<svg width="92" height="82" viewBox="0 0 92 82" fill="none" xmlns="http://www.w3.org/2000/svg">
<path fill-rule="evenodd" clip-rule="evenodd" d="M8.36597 43.792C9.47054 43.792 10.366 44.6875 10.366 45.792V79.792C10.366 80.8966 11.2614 81.792 12.366 81.792H25.4533L25.4583 81.7473L35.7942 53.1388C36.7171 54.0002 37.7175 54.7237 38.7954 55.3094C39.8732 55.8951 41.0262 56.3405 42.2542 56.6457L33.1408 81.792H58.0122L48.8988 56.6457C50.1292 56.3381 51.2834 55.8914 52.3613 55.3057C53.4392 54.72 54.4384 53.9977 55.3588 53.1388L65.6947 81.7473C65.6995 81.7617 65.7041 81.7766 65.7085 81.792H78.366C79.4705 81.792 80.366 80.8966 80.366 79.792V45.792C80.366 44.6875 81.2614 43.792 82.366 43.792H89.1888C91.0174 43.792 91.8871 41.5408 90.5334 40.3115L46.7175 0.519435C45.952 -0.175779 44.7827 -0.17279 44.0207 0.526324L0.651889 40.3184C-0.691782 41.5512 0.180465 43.792 2.00403 43.792H8.36597ZM37.7322 50.0934C39.8856 52.2467 42.5003 53.3234 45.5765 53.3234C48.6527 53.3234 51.2674 52.2467 53.4208 50.0934C55.5741 47.9401 56.6508 45.3253 56.6508 42.2491C56.6532 39.8522 55.9617 37.7149 54.5762 35.8372C53.1907 33.9594 51.4212 32.6515 49.2679 31.9132V27.4835C49.2704 26.44 48.9172 25.5639 48.2085 24.8552C47.4997 24.1464 46.6224 23.792 45.5765 23.792C44.5331 23.7945 43.657 24.1489 42.9482 24.8552C42.2395 25.5615 41.8851 26.4376 41.8851 27.4835V31.9132C39.7342 32.6539 37.966 33.9619 36.5805 35.8372C35.195 37.7124 34.5022 39.8497 34.5022 42.2491C34.5022 45.3253 35.5789 47.9401 37.7322 50.0934ZM48.2085 44.8774C47.4997 45.5862 46.6224 45.9406 45.5765 45.9406C44.5331 45.943 43.657 45.5899 42.9482 44.8811C42.2395 44.1724 41.8851 43.295 41.8851 42.2491C41.8875 41.2057 42.2419 40.3296 42.9482 39.6209C43.6545 38.9121 44.5306 38.5577 45.5765 38.5577C46.6199 38.5602 47.496 38.9146 48.2048 39.6209C48.9135 40.3271 49.2679 41.2032 49.2679 42.2491C49.2704 43.2926 48.9172 44.1687 48.2085 44.8774Z" fill="white"/>
</svg>
