<svg width="208" height="36" viewBox="0 0 208 36" fill="none" xmlns="http://www.w3.org/2000/svg">
<g id="Group 2">
<g id="&#208;&#173;&#208;&#154;&#208;&#158;&#208;&#159;&#208;&#144;&#208;&#160;&#208;&#154;">
<path id="Vector" d="M188.076 14.7229H193.193V22.9884C194.155 22.9884 194.932 22.8162 195.522 22.4718C196.112 22.1059 196.758 21.4171 197.457 20.4054L201.459 14.7229H207.2L202.607 21.0189C201.908 21.9875 201.263 22.7301 200.672 23.2467C200.103 23.7417 199.393 24.1507 198.54 24.4736V24.5381C199.633 24.7964 200.541 25.2592 201.263 25.9265C202.006 26.5938 202.728 27.5624 203.428 28.8323L207.2 35.6772H201.459L197.982 29.5103C197.523 28.6924 197.075 28.079 196.637 27.67C196.222 27.2395 195.752 26.9489 195.227 26.7982C194.702 26.6476 194.024 26.5722 193.193 26.5722V35.6772H188.076V14.7229Z" fill="#03D055"/>
<path id="Vector_2" d="M167.51 14.7229H176.039C178.116 14.7229 179.756 14.8628 180.959 15.1426C182.184 15.4225 183.069 15.9175 183.616 16.6278C184.185 17.3166 184.469 18.2852 184.469 19.5337V23.505C184.469 24.8825 184.163 25.9588 183.55 26.7337C182.96 27.5086 182.009 28.0574 180.697 28.3803C179.406 28.7032 177.657 28.8646 175.448 28.8646H172.627V35.6772H167.51V14.7229ZM175.875 25.4099C177.209 25.4099 178.149 25.2592 178.696 24.9579C179.242 24.635 179.516 24.0969 179.516 23.3435V19.9857C179.516 19.2969 179.253 18.8449 178.728 18.6296C178.225 18.4144 177.252 18.3068 175.809 18.3068H172.627V25.4099H175.875Z" fill="#03D055"/>
<path id="Vector_3" d="M151.24 14.7229H157.473L165.149 35.6772H159.966L158.063 30.1561H150.289L148.419 35.6772H143.368L151.24 14.7229ZM156.948 26.7982L154.258 18.9202H154.127L151.437 26.7982H156.948Z" fill="#03D055"/>
<path id="Vector_4" d="M122.245 14.7229H141.009V35.6772H135.891V18.2745H127.363V35.6772H122.245V14.7229Z" fill="#03D055"/>
<path id="Vector_5" d="M107.991 36C106.81 36 105.717 35.9247 104.711 35.774C103.727 35.6233 102.699 35.365 101.627 34.9991C100.468 34.6117 99.5608 33.9875 98.9047 33.1265C98.2487 32.244 97.9207 31.1785 97.9207 29.9301V20.7606C97.9207 19.7274 98.1503 18.8018 98.6095 17.9839C99.0906 17.1659 99.703 16.5202 100.446 16.0467C101.103 15.6377 101.912 15.2933 102.874 15.0135C103.836 14.7337 104.733 14.5615 105.564 14.4969C106.329 14.4323 107.138 14.4 107.991 14.4C108.997 14.4 109.872 14.4431 110.615 14.5292C111.359 14.5937 112.19 14.7444 113.108 14.9812C114.158 15.2825 115.022 15.6485 115.7 16.0789C116.378 16.5094 116.946 17.1121 117.406 17.887C117.887 18.6834 118.127 19.6413 118.127 20.7606V29.9301C118.127 31.0924 117.81 32.0933 117.176 32.9328C116.564 33.7722 115.711 34.4072 114.617 34.8377C112.649 35.6126 110.44 36 107.991 36ZM108.057 32.4162C108.778 32.4162 109.38 32.3946 109.861 32.3516C110.364 32.287 110.878 32.1794 111.403 32.0287C111.928 31.878 112.321 31.6305 112.584 31.2861C112.868 30.9202 113.01 30.4682 113.01 29.9301V20.7283C113.01 19.7381 112.605 19.0386 111.796 18.6296C110.987 18.1991 109.73 17.9839 108.024 17.9839C106.318 17.9839 105.061 18.1884 104.252 18.5973C103.443 19.0063 103.038 19.7166 103.038 20.7283V29.9301C103.038 30.4682 103.18 30.9202 103.464 31.2861C103.749 31.6305 104.164 31.878 104.711 32.0287C105.236 32.1794 105.739 32.287 106.22 32.3516C106.723 32.3946 107.335 32.4162 108.057 32.4162Z" fill="#03D055"/>
<path id="Vector_6" d="M76.885 14.7229H82.0023V22.9884C82.9645 22.9884 83.7408 22.8162 84.3313 22.4718C84.9218 22.1059 85.5669 21.4171 86.2667 20.4054L90.2687 14.7229H96.0092L91.4168 21.0189C90.717 21.9875 90.0718 22.7301 89.4814 23.2467C88.9128 23.7417 88.2021 24.1507 87.3492 24.4736V24.5381C88.4426 24.7964 89.3502 25.2592 90.0718 25.9265C90.8154 26.5938 91.537 27.5624 92.2368 28.8323L96.0092 35.6772H90.2687L86.7915 29.5103C86.3323 28.6924 85.884 28.079 85.4466 27.67C85.0311 27.2395 84.5609 26.9489 84.0361 26.7982C83.5112 26.6476 82.8333 26.5722 82.0023 26.5722V35.6772H76.885V14.7229Z" fill="#03D055"/>
<path id="Vector_7" d="M62.8886 36C60.6362 36 58.34 35.7633 56 35.2897V31.4798C58.7336 32.1041 60.8549 32.4162 62.3638 32.4162C65.8847 32.4162 67.6451 31.4691 67.6451 29.5749V26.7014H58.8867V23.1175H67.6451V20.6637C67.6451 19.8458 67.4045 19.2431 66.9234 18.8556C66.4423 18.4682 65.8737 18.2314 65.2177 18.1453C64.5616 18.0377 63.7306 17.9839 62.7246 17.9839C61.1938 17.9839 59.0616 18.296 56.328 18.9202V15.1426C59.0179 14.6476 61.3141 14.4 63.2167 14.4C65.4035 14.4 67.164 14.5507 68.498 14.852C69.832 15.1319 70.8707 15.7346 71.6143 16.6601C72.3797 17.5641 72.7624 18.9202 72.7624 20.7283V29.9301C72.7624 30.9202 72.5437 31.8027 72.1063 32.5776C71.6689 33.331 71.1003 33.9337 70.4005 34.3857C69.4821 34.9668 68.3558 35.3866 67.0218 35.6449C65.6878 35.8816 64.3101 36 62.8886 36Z" fill="#03D055"/>
</g>
<g id="Group 1">
<path id="Vector 1" d="M19.7323 22.6155C19.3377 21.5078 17.2658 20.0001 16.2792 19.3848V20.3078C16.2792 20.3078 18.2524 21.6924 18.2524 24.4617V31.3847C18.2524 33.2309 16.9369 34.3078 16.2792 34.6155H0V36.0001H20.2256C20.2256 25.3847 20.2905 24.1822 19.7323 22.6155Z" fill="#03D055"/>
<path id="Vector 25" d="M24.6676 22.6155C25.0622 21.5078 27.1341 20.0001 28.1207 19.3848V20.3078C28.1207 20.3078 26.1475 21.6924 26.1475 24.4617V31.3847C26.1475 33.2309 27.463 34.3078 28.1207 34.6155H44.3999V36.0001H24.1743C24.1743 25.3847 24.1094 24.1822 24.6676 22.6155Z" fill="#03D055"/>
<path id="Vector 2" d="M21.2124 3.23088C21.2124 0.923194 22.6923 0.00012207 22.6923 0.00012207C22.6923 0.00012207 24.1723 0.923194 24.1723 3.23088C24.1723 5.53856 22.6923 6.46163 22.6923 6.46163C22.6923 6.46163 21.2124 5.53856 21.2124 3.23088Z" fill="#FFD600"/>
<path id="Vector 3" d="M16.9106 3.68261C16.4595 1.41385 17.734 0.253127 17.734 0.253127C17.734 0.253127 19.3694 0.90741 19.8205 3.17617C20.2716 5.44493 18.9971 6.60566 18.9971 6.60566C18.9971 6.60566 17.3617 5.95138 16.9106 3.68261Z" fill="#FFD600"/>
<path id="Vector 10" d="M28.7003 3.68261C29.1514 1.41385 27.8768 0.253127 27.8768 0.253127C27.8768 0.253127 26.2414 0.90741 25.7903 3.17617C25.3392 5.44493 26.6138 6.60566 26.6138 6.60566C26.6138 6.60566 28.2492 5.95138 28.7003 3.68261Z" fill="#FFD600"/>
<path id="Vector 4" d="M12.9079 5.05703C11.7924 2.99882 12.6661 1.54935 12.6661 1.54935C12.6661 1.54935 14.4323 1.74645 15.5477 3.80466C16.6632 5.86287 15.7895 7.31233 15.7895 7.31233C15.7895 7.31233 14.0233 7.11523 12.9079 5.05703Z" fill="#FFD600"/>
<path id="Vector 11" d="M32.703 5.05703C33.8185 2.99882 32.9447 1.54935 32.9447 1.54935C32.9447 1.54935 31.1786 1.74645 30.0631 3.80466C28.9476 5.86287 29.8214 7.31233 29.8214 7.31233C29.8214 7.31233 31.5875 7.11523 32.703 5.05703Z" fill="#FFD600"/>
<path id="Vector 5" d="M9.59001 7.9468C8.02565 6.16264 8.54409 4.57081 8.54409 4.57081C8.54409 4.57081 10.314 4.40631 11.8784 6.19047C13.4428 7.97464 12.9243 9.56647 12.9243 9.56647C12.9243 9.56647 11.1544 9.73097 9.59001 7.9468Z" fill="#FFD600"/>
<path id="Vector 12" d="M36.0211 7.9468C37.5854 6.16264 37.067 4.57081 37.067 4.57081C37.067 4.57081 35.2971 4.40631 33.7327 6.19047C32.1683 7.97464 32.6868 9.56647 32.6868 9.56647C32.6868 9.56647 34.4567 9.73097 36.0211 7.9468Z" fill="#FFD600"/>
<path id="Vector 6" d="M7.41152 11.4131C5.28879 10.2379 5.19337 8.57621 5.19337 8.57621C5.19337 8.57621 6.79613 7.85469 8.91887 9.02991C11.0416 10.2051 11.137 11.8668 11.137 11.8668C11.137 11.8668 9.53425 12.5883 7.41152 11.4131Z" fill="#FFD600"/>
<path id="Vector 13" d="M38.1993 11.4131C40.322 10.2379 40.4175 8.57621 40.4175 8.57621C40.4175 8.57621 38.8147 7.85469 36.692 9.02991C34.5692 10.2051 34.4738 11.8668 34.4738 11.8668C34.4738 11.8668 36.0766 12.5883 38.1993 11.4131Z" fill="#FFD600"/>
<path id="Vector 7" d="M5.83067 15.4267C3.42773 14.906 2.80046 13.3488 2.80046 13.3488C2.80046 13.3488 4.09554 12.2082 6.49848 12.7289C8.90142 13.2495 9.52869 14.8067 9.52869 14.8067C9.52869 14.8067 8.23361 15.9473 5.83067 15.4267Z" fill="#FFD600"/>
<path id="Vector 14" d="M39.7802 15.4267C42.1831 14.906 42.8104 13.3488 42.8104 13.3488C42.8104 13.3488 41.5153 12.2082 39.1124 12.7289C36.7094 13.2495 36.0821 14.8067 36.0821 14.8067C36.0821 14.8067 37.3772 15.9473 39.7802 15.4267Z" fill="#FFD600"/>
<path id="Vector 8" d="M6.10354 20.0768C3.6391 19.9817 2.71433 18.5602 2.71433 18.5602C2.71433 18.5602 3.76112 17.2148 6.22556 17.3099C8.69001 17.4051 9.61477 18.8266 9.61477 18.8266C9.61477 18.8266 8.56799 20.1719 6.10354 20.0768Z" fill="#FFD600"/>
<path id="Vector 15" d="M39.5073 20.0768C41.9717 19.9817 42.8965 18.5602 42.8965 18.5602C42.8965 18.5602 41.8497 17.2148 39.3853 17.3099C36.9208 17.4051 35.9961 18.8266 35.9961 18.8266C35.9961 18.8266 37.0429 20.1719 39.5073 20.0768Z" fill="#FFD600"/>
<path id="Vector 9" d="M6.2813 24.1026C3.86724 24.5761 2.59796 23.4104 2.59796 23.4104C2.59796 23.4104 3.25994 21.8658 5.67401 21.3923C8.08807 20.9188 9.35734 22.0846 9.35734 22.0846C9.35734 22.0846 8.69537 23.6291 6.2813 24.1026Z" fill="#FFD600"/>
<path id="Vector 17" d="M13.8249 23.5091C11.7171 24.7076 10.1054 24.0038 10.1054 24.0038C10.1054 24.0038 10.1799 22.3412 12.2877 21.1426C14.3954 19.9441 16.0072 20.6479 16.0072 20.6479C16.0072 20.6479 15.9327 22.3105 13.8249 23.5091Z" fill="#03D055"/>
<path id="Vector 18" d="M30.6335 16.9675C28.5257 18.1661 26.914 17.4623 26.914 17.4623C26.914 17.4623 26.9885 15.7997 29.0962 14.6011C31.204 13.4026 32.8158 14.1064 32.8158 14.1064C32.8158 14.1064 32.7413 15.769 30.6335 16.9675Z" fill="#03D055"/>
<path id="Vector 19" d="M24.9248 14.8853C24.3233 17.1233 22.6475 17.6809 22.6475 17.6809C22.6475 17.6809 21.4528 16.4481 22.0542 14.2101C22.6557 11.9721 24.3315 11.4145 24.3315 11.4145C24.3315 11.4145 25.5262 12.6473 24.9248 14.8853Z" fill="#03D055"/>
<path id="Vector 20" d="M28.9145 11.8391C28.8069 14.1446 27.2854 15.0064 27.2854 15.0064C27.2854 15.0064 25.8499 14.0238 25.9575 11.7183C26.0651 9.41283 27.5866 8.55102 27.5866 8.55102C27.5866 8.55102 29.0221 9.53361 28.9145 11.8391Z" fill="#03D055"/>
<path id="Vector 21" d="M21.3473 10.4819C21.6874 12.7675 20.3577 13.8727 20.3577 13.8727C20.3577 13.8727 18.7559 13.1494 18.4158 10.8637C18.0756 8.57808 19.4054 7.4729 19.4054 7.4729C19.4054 7.4729 21.0072 8.19623 21.3473 10.4819Z" fill="#03D055"/>
<path id="Vector 22" d="M15.2112 15.2634C17.6488 15.6162 18.3975 17.1257 18.3975 17.1257C18.3975 17.1257 17.1962 18.3528 14.7587 18C12.3211 17.6472 11.5724 16.1377 11.5724 16.1377C11.5724 16.1377 12.7737 14.9105 15.2112 15.2634Z" fill="#03D055"/>
<path id="Vector 23" d="M16.6604 11.7138C18.8434 12.7881 19.0276 14.4432 19.0276 14.4432C19.0276 14.4432 17.4655 15.239 15.2825 14.1647C13.0995 13.0905 12.9152 11.4353 12.9152 11.4353C12.9152 11.4353 14.4774 10.6396 16.6604 11.7138Z" fill="#03D055"/>
<path id="Vector 24" d="M32.5527 21.8115C34.7357 22.8857 34.92 24.5409 34.92 24.5409C34.92 24.5409 33.3579 25.3366 31.1749 24.2624C28.9919 23.1881 28.8076 21.533 28.8076 21.533C28.8076 21.533 30.3697 20.7372 32.5527 21.8115Z" fill="#03D055"/>
<path id="Vector 16" d="M39.3293 24.1026C41.7434 24.5761 43.0126 23.4104 43.0126 23.4104C43.0126 23.4104 42.3507 21.8658 39.9366 21.3923C37.5225 20.9188 36.2533 22.0846 36.2533 22.0846C36.2533 22.0846 36.9152 23.6291 39.3293 24.1026Z" fill="#FFD600"/>
</g>
</g>
</svg>
