<svg width="290" height="278" viewBox="0 0 290 278" fill="none" xmlns="http://www.w3.org/2000/svg">
<path d="M290 20C290 8.95431 281.046 0 270 0L20 0C8.95428 0 0 8.95431 0 20V197.259V234C0 245.046 8.95432 254 20 254H31.326H109.258C114.239 254 119.041 255.859 122.724 259.213L142.149 276.904C143.74 278.353 146.193 278.284 147.699 276.747L164.119 259.999C167.881 256.162 173.028 254 178.401 254H270C281.046 254 290 245.046 290 234V20Z" fill="url(#paint0_linear_54_3575)"/>
<defs>
<linearGradient id="paint0_linear_54_3575" x1="281.619" y1="-4.5645e-06" x2="98.8641" y2="192.626" gradientUnits="userSpaceOnUse">
<stop stop-color="#0196B7"/>
<stop offset="1" stop-color="#01AE46"/>
</linearGradient>
</defs>
</svg>
