<svg width="32" height="32" viewBox="0 0 32 32" fill="none" xmlns="http://www.w3.org/2000/svg">
<g id="solar:phone-bold">
<path id="Vector" d="M22.0748 17.2083L21.4681 17.8123C21.4681 17.8123 20.0241 19.247 16.0841 15.3296C12.1441 11.4123 13.5881 9.97763 13.5881 9.97763L13.9694 9.5963C14.9121 8.6603 15.0014 7.1563 14.1788 6.05763L12.4987 3.81363C11.4801 2.45363 9.51342 2.27363 8.34675 3.43363L6.25342 5.51363C5.67608 6.08963 5.28942 6.83363 5.33608 7.6603C5.45608 9.7763 6.41342 14.327 11.7521 19.6363C17.4148 25.2656 22.7281 25.4896 24.9001 25.287C25.5881 25.223 26.1854 24.8736 26.6668 24.3936L28.5601 22.511C29.8401 21.2403 29.4801 19.0603 27.8428 18.171L25.2961 16.7856C24.2214 16.203 22.9148 16.3736 22.0748 17.2083Z" fill="#616161"/>
</g>
</svg>
