<svg width="32" height="32" viewBox="0 0 32 32" fill="none" xmlns="http://www.w3.org/2000/svg">
<g id="tabler:mail-filled" clip-path="url(#clip0_25_1882)">
<g id="Group">
<path id="Vector" d="M29.3334 10.0469V22.6669C29.3335 23.6872 28.9436 24.6689 28.2437 25.4112C27.5438 26.1535 26.5866 26.6004 25.5681 26.6602L25.3334 26.6669H6.66675C5.64647 26.6669 4.66473 26.2771 3.9224 25.5772C3.18007 24.8772 2.73327 23.9201 2.67341 22.9015L2.66675 22.6669V10.0469L15.2601 18.4429L15.4147 18.5309C15.597 18.6199 15.7972 18.6662 16.0001 18.6662C16.2029 18.6662 16.4031 18.6199 16.5854 18.5309L16.7401 18.4429L29.3334 10.0469Z" fill="#616161"/>
<path id="Vector_2" d="M25.3333 5.33301C26.7733 5.33301 28.036 6.09301 28.74 7.23567L16 15.729L3.26001 7.23567C3.59432 6.6927 4.05363 6.23754 4.59962 5.90818C5.14561 5.57883 5.76245 5.38482 6.39868 5.34234L6.66668 5.33301H25.3333Z" fill="#616161"/>
</g>
</g>
<defs>
<clipPath id="clip0_25_1882">
<rect width="32" height="32" fill="white"/>
</clipPath>
</defs>
</svg>
