<svg width="98" height="88" viewBox="0 0 98 88" fill="none" xmlns="http://www.w3.org/2000/svg">
<path d="M97.7988 79.9372L97.8256 79.9221L89.3537 65.2869H92.6878V65.2718C93.3832 65.2718 93.9472 64.7104 93.9472 64.0168C93.9472 63.8022 93.8786 63.6096 93.7844 63.4333L93.8065 63.4205L85.972 49.885H87.878V49.8746C88.1162 49.8746 88.3447 49.7803 88.5132 49.6124C88.6818 49.4445 88.7766 49.2167 88.7769 48.9791C88.7735 48.8328 88.7335 48.6897 88.6606 48.5627L88.6757 48.5534L77.2769 28.8585L77.2652 28.8655C77.141 28.6051 76.9457 28.3849 76.7018 28.2302C76.4578 28.0755 76.1751 27.9926 75.886 27.9909C75.2766 27.9909 74.7603 28.3516 74.508 28.8632L74.5021 28.8597L63.1032 48.5534L63.1056 48.5546C63.0289 48.6832 62.9869 48.8295 62.9835 48.9791C62.9835 49.4733 63.3858 49.8746 63.8824 49.8746V49.885H65.814L57.9795 63.4205L57.9829 63.4217C57.876 63.6023 57.8172 63.8071 57.812 64.0168C57.812 64.7104 58.376 65.2718 59.0714 65.2718V65.2869H62.4369L59.9948 69.5068L50.2275 52.6318H54.9326V52.6109C55.9141 52.6109 56.7095 51.8164 56.7095 50.8385C56.7095 50.5369 56.627 50.2562 56.4932 50.0068L56.5107 49.9964L45.4549 30.8954H48.1447V30.8815C48.3114 30.8816 48.4766 30.849 48.6306 30.7854C48.7847 30.7217 48.9247 30.6284 49.0426 30.5108C49.1604 30.3931 49.2538 30.2534 49.3175 30.0996C49.3811 29.9459 49.4137 29.7811 49.4134 29.6148C49.4134 29.3991 49.3448 29.2054 49.2494 29.0279L49.2715 29.0151L33.1838 1.22607L33.178 1.22955C33.0004 0.861967 32.7227 0.551684 32.3765 0.334232C32.0304 0.11678 31.6298 0.000948812 31.2208 0C30.3393 0 29.5834 0.5243 29.2392 1.27595L13.1828 29.0151L13.1863 29.0174C13.0784 29.1989 13.0191 29.405 13.0142 29.616C13.0139 29.7822 13.0464 29.9469 13.11 30.1005C13.1736 30.2542 13.2669 30.3939 13.3846 30.5115C13.5024 30.6292 13.6422 30.7225 13.7961 30.7862C13.9501 30.8499 14.1151 30.8827 14.2818 30.8827V30.8966H17.0088L6.08321 49.7714C5.84652 50.0772 5.71737 50.4522 5.71573 50.8385C5.71573 51.8175 6.51232 52.6109 7.49266 52.6109V52.6318H12.242L0.450048 73.0064C0.170949 73.3707 0 73.8207 0 74.3149C0 75.5119 0.974523 76.484 2.17581 76.484V76.5083H25.1771V86.2868C25.1771 87.2321 25.9458 88 26.8936 88H35.4794C36.4271 88 37.197 87.2333 37.197 86.2868V76.5083H55.9432L53.9674 79.9221L53.9709 79.9244C53.8499 80.1436 53.7616 80.3837 53.7616 80.6528C53.7616 81.5019 54.4512 82.1898 55.3024 82.1898V82.2072H71.6018V86.7786C71.6018 87.449 72.1472 87.9919 72.8182 87.9919H78.9026C79.5748 87.9919 80.119 87.449 80.119 86.7786V82.2072H96.458V82.1898C97.3092 82.1898 98 81.5019 98 80.6528C97.9941 80.4012 97.9249 80.1551 97.7988 79.9372Z" fill="white"/>
</svg>
