<svg width="25" height="26" viewBox="0 0 25 26" fill="none" xmlns="http://www.w3.org/2000/svg">
<g clip-path="url(#clip0_2642_12733)">
<mask id="mask0_2642_12733" style="mask-type:luminance" maskUnits="userSpaceOnUse" x="0" y="0" width="25" height="26">
<path d="M12.5 25.5C19.4036 25.5 25 19.9036 25 13C25 6.09644 19.4036 0.5 12.5 0.5C5.59644 0.5 0 6.09644 0 13C0 19.9036 5.59644 25.5 12.5 25.5Z" fill="white"/>
</mask>
<g mask="url(#mask0_2642_12733)">
<path d="M0 0.5L0.390625 1.57422L0 2.69727V3.82031L1.5625 6.45703L0 9.09375V10.6562L1.5625 13L0 15.3438V16.9062L1.5625 19.543L0 22.1797V25.5L1.07422 25.1094L2.19727 25.5H3.32031L5.95703 23.9375L8.59375 25.5H10.1562L12.5 23.9375L14.8438 25.5H16.4062L19.043 23.9375L21.6797 25.5H25L24.6094 24.4258L25 23.3027V22.1797L23.4375 19.543L25 16.9062V15.3438L23.4375 13L25 10.6562V9.09375L23.4375 6.45703L25 3.82031V0.5L23.9258 0.890625L22.8027 0.5H21.6797L19.043 2.0625L16.4062 0.5H14.8438L12.5 2.0625L10.1562 0.5H8.59375L5.95703 2.0625L3.32031 0.5H0Z" fill="#EEEEEE"/>
<path d="M16.4062 0.5V5.77344L21.6797 0.5H16.4062ZM25 3.82031L19.7266 9.09375H25V3.82031ZM0 9.09375H5.27344L0 3.82031V9.09375ZM3.32031 0.5L8.59375 5.77344V0.5H3.32031ZM8.59375 25.5V20.2266L3.32031 25.5H8.59375ZM0 22.1797L5.27344 16.9062H0V22.1797ZM25 16.9062H19.7266L25 22.1797V16.9062ZM21.6797 25.5L16.4062 20.2266V25.5H21.6797Z" fill="#0052B4"/>
<path d="M0 0.5V2.69727L6.39648 9.09375H8.59375L0 0.5ZM10.1562 0.5V10.6562H0V15.3438H10.1562V25.5H14.8438V15.3438H25V10.6562H14.8438V0.5H10.1562ZM22.8027 0.5L16.4062 6.89648V9.09375L25 0.5H22.8027ZM8.59375 16.9062L0 25.5H2.19727L8.59375 19.1035V16.9062ZM16.4062 16.9062L25 25.5V23.3027L18.6035 16.9062H16.4062Z" fill="#D80027"/>
</g>
</g>
<defs>
<clipPath id="clip0_2642_12733">
<rect width="25" height="25" fill="white" transform="translate(0 0.5)"/>
</clipPath>
</defs>
</svg>
