<svg width="340" height="340" viewBox="0 0 340 340" fill="none" xmlns="http://www.w3.org/2000/svg">
<circle cx="170" cy="170" r="153" fill="url(#paint0_linear_13_1208)"/>
<path d="M299.469 66.1066C301.192 64.724 303.714 64.9973 305.055 66.7524C321.879 88.7589 333.083 114.561 337.665 141.921C342.467 170.597 339.835 200.026 330.018 227.394C320.202 254.763 303.53 279.156 281.597 298.242C259.663 317.329 233.201 330.471 204.739 336.413C176.277 342.354 146.767 340.896 119.029 332.179C91.2914 323.461 66.2531 307.775 46.3074 286.62C26.3617 265.464 12.1753 239.547 5.1041 211.344C-1.64254 184.436 -1.69695 156.306 4.91762 129.407C5.44513 127.262 7.64698 126.002 9.77921 126.58L9.87449 126.606C12.0067 127.184 13.2617 129.38 12.7367 131.526C6.48291 157.087 6.5499 183.81 12.9597 209.375C19.694 236.234 33.2046 260.916 52.2001 281.064C71.1955 301.211 95.0411 316.15 121.457 324.453C147.874 332.755 175.978 334.143 203.084 328.485C230.19 322.826 255.392 310.31 276.28 292.133C297.169 273.956 313.047 250.725 322.395 224.66C331.744 198.596 334.251 170.569 329.678 143.259C325.324 117.265 314.695 92.7475 298.737 71.8225C297.397 70.0659 297.669 67.551 299.392 66.1684L299.469 66.1066Z" fill="url(#paint1_linear_13_1208)"/>
<path d="M130.559 270.267C129.526 272.849 130.777 275.79 133.402 276.707C145.739 281.017 158.746 283.148 171.839 282.992C186.611 282.816 201.205 279.732 214.786 273.917C228.367 268.101 240.669 259.667 250.99 249.097C260.138 239.729 267.571 228.845 272.966 216.943C274.114 214.41 272.849 211.474 270.267 210.441C267.686 209.407 264.767 210.668 263.608 213.196C258.712 223.873 252.01 233.64 243.786 242.062C234.388 251.687 223.187 259.365 210.822 264.661C198.457 269.956 185.169 272.763 171.719 272.923C159.948 273.064 148.255 271.174 137.148 267.349C134.519 266.444 131.593 267.686 130.559 270.267Z" fill="white"/>
<defs>
<linearGradient id="paint0_linear_13_1208" x1="57.5" y1="71.5" x2="279" y2="279.5" gradientUnits="userSpaceOnUse">
<stop stop-color="#FFD600"/>
<stop offset="1" stop-color="#03D055"/>
</linearGradient>
<linearGradient id="paint1_linear_13_1208" x1="68.2067" y1="20.6687" x2="260.942" y2="322.948" gradientUnits="userSpaceOnUse">
<stop stop-color="#FFD600"/>
<stop offset="1" stop-color="#03D055"/>
</linearGradient>
</defs>
</svg>
