<svg width="32" height="32" viewBox="0 0 32 32" fill="none" xmlns="http://www.w3.org/2000/svg">
<path d="M5.58342 30.4V20H4.78893C4.33872 20 3.9616 19.8464 3.65758 19.5392C3.35355 19.232 3.20101 18.8523 3.19995 18.4V11.2C3.19995 10.32 3.51139 9.56693 4.13427 8.9408C4.75715 8.31466 5.50503 8.00107 6.3779 8H11.1448C12.0188 8 12.7672 8.3136 13.3901 8.9408C14.0129 9.568 14.3238 10.3211 14.3228 11.2V18.4C14.3228 18.8533 14.1702 19.2336 13.8652 19.5408C13.5601 19.848 13.183 20.0011 12.7338 20H11.9393V30.4C11.9393 30.8533 11.7868 31.2336 11.4817 31.5408C11.1766 31.848 10.7995 32.0011 10.3503 32H7.17239C6.72218 32 6.34506 31.8464 6.04104 31.5392C5.73702 31.232 5.58447 30.8523 5.58342 30.4ZM8.76137 6.4C7.88743 6.4 7.13955 6.08693 6.51773 5.4608C5.89591 4.83467 5.58447 4.08107 5.58342 3.2C5.58342 2.32 5.89485 1.56693 6.51773 0.9408C7.14061 0.314667 7.88849 0.00106667 8.76137 0C9.6353 0 10.3837 0.3136 11.0066 0.9408C11.6295 1.568 11.9404 2.32107 11.9393 3.2C11.9393 4.08 11.6284 4.8336 11.0066 5.4608C10.3848 6.088 9.63636 6.40107 8.76137 6.4ZM20.6787 30.4V22.4H18.0966C17.5669 22.4 17.1432 22.1797 16.8254 21.7392C16.5076 21.2987 16.4414 20.8123 16.6268 20.28L19.9636 10.16C20.1755 9.46667 20.5659 8.93333 21.1347 8.56C21.7036 8.18666 22.3461 8 23.0622 8C23.7772 8 24.4197 8.18666 24.9896 8.56C25.5595 8.93333 25.9499 9.46667 26.1607 10.16L29.4975 20.28C29.6829 20.8133 29.6167 21.3003 29.2989 21.7408C28.9811 22.1813 28.5574 22.4011 28.0277 22.4H25.4456V30.4C25.4456 30.8533 25.2931 31.2336 24.988 31.5408C24.6829 31.848 24.3058 32.0011 23.8566 32H22.2677C21.8175 32 21.4403 31.8464 21.1363 31.5392C20.8323 31.232 20.6797 30.8523 20.6787 30.4ZM23.0622 6.4C22.1882 6.4 21.4403 6.08693 20.8185 5.4608C20.1967 4.83467 19.8853 4.08107 19.8842 3.2C19.8842 2.32 20.1956 1.56693 20.8185 0.9408C21.4414 0.314667 22.1893 0.00106667 23.0622 0C23.9361 0 24.6845 0.3136 25.3074 0.9408C25.9303 1.568 26.2412 2.32107 26.2401 3.2C26.2401 4.08 25.9292 4.8336 25.3074 5.4608C24.6856 6.088 23.9371 6.40107 23.0622 6.4Z" fill="#616161"/>
</svg>
