<svg width="59" height="59" viewBox="0 0 59 59" fill="none" xmlns="http://www.w3.org/2000/svg">
<g clip-path="url(#clip0_24_196)">
<g filter="url(#filter0_d_24_196)">
<path d="M5.08825 25.689C5.08706 30.058 6.21543 34.324 8.36102 38.0841L4.88306 50.9313L17.8785 47.484C21.4729 49.4637 25.5001 50.501 29.5926 50.5012H29.6033C43.1133 50.5012 54.1108 39.3791 54.1166 25.7085C54.1192 19.0842 51.5716 12.855 46.9429 8.16859C42.3151 3.48255 36.1602 0.900484 29.6023 0.897461C16.0907 0.897461 5.09403 12.019 5.08845 25.689" fill="url(#paint0_linear_24_196)"/>
</g>
<path d="M4.21316 25.6807C4.21177 30.207 5.38059 34.6255 7.60267 38.5203L4 51.8281L17.4614 48.2572C21.1705 50.3031 25.3465 51.3818 29.5958 51.3835H29.6068C43.6015 51.3835 54.994 39.8612 55 25.7013C55.0024 18.8389 52.3631 12.3859 47.5691 7.53153C42.7745 2.6778 36.3995 0.00282171 29.6068 0C15.6097 0 4.21894 11.5206 4.21336 25.6807H4.21316ZM12.2297 37.8496L11.7271 37.0423C9.61418 33.6434 8.49896 29.7156 8.50055 25.6824C8.50513 13.9128 17.9728 4.33736 29.6147 4.33736C35.2526 4.33978 40.5511 6.56329 44.5362 10.5975C48.5212 14.6322 50.714 19.9954 50.7126 25.6997C50.7074 37.4692 41.2396 47.0459 29.6068 47.0459H29.5984C25.8107 47.0439 22.0958 46.0148 18.8561 44.07L18.0852 43.6074L10.0969 45.7263L12.2297 37.8493V37.8496Z" fill="url(#paint1_linear_24_196)"/>
<path d="M23.2601 14.9444C22.7848 13.8756 22.2846 13.854 21.8325 13.8352C21.4624 13.8191 21.0393 13.8203 20.6165 13.8203C20.1934 13.8203 19.5059 13.9814 18.9247 14.6233C18.343 15.2659 16.7039 16.8186 16.7039 19.9767C16.7039 23.135 18.9775 26.1871 19.2945 26.6158C19.6119 27.0437 23.6839 33.7319 30.133 36.3049C35.4928 38.4431 36.5835 38.0179 37.7467 37.9106C38.9102 37.8038 41.5008 36.3583 42.0293 34.8594C42.5583 33.3606 42.5583 32.076 42.3997 31.8075C42.2411 31.54 41.818 31.3794 41.1835 31.0585C40.5487 30.7375 37.4294 29.1845 36.8479 28.9703C36.2661 28.7562 35.8432 28.6494 35.4201 29.2921C34.9969 29.9339 33.7819 31.3794 33.4115 31.8075C33.0416 32.2366 32.6712 32.29 32.0369 31.9689C31.402 31.6469 29.3586 30.9699 26.9343 28.7832C25.0481 27.0817 23.7747 24.9806 23.4046 24.3378C23.0344 23.6961 23.3649 23.3482 23.6831 23.0284C23.9682 22.7408 24.3178 22.2788 24.6354 21.9041C24.9517 21.5292 25.0573 21.2618 25.2689 20.8337C25.4806 20.4052 25.3747 20.0303 25.2163 19.7092C25.0573 19.3882 23.8243 16.2137 23.2601 14.9446" fill="white"/>
</g>
<defs>
<filter id="filter0_d_24_196" x="0.883057" y="0.897461" width="57.2336" height="58.0337" filterUnits="userSpaceOnUse" color-interpolation-filters="sRGB">
<feFlood flood-opacity="0" result="BackgroundImageFix"/>
<feColorMatrix in="SourceAlpha" type="matrix" values="0 0 0 0 0 0 0 0 0 0 0 0 0 0 0 0 0 0 127 0" result="hardAlpha"/>
<feOffset dy="4"/>
<feGaussianBlur stdDeviation="2"/>
<feComposite in2="hardAlpha" operator="out"/>
<feColorMatrix type="matrix" values="0 0 0 0 0 0 0 0 0 0 0 0 0 0 0 0 0 0 0.25 0"/>
<feBlend mode="normal" in2="BackgroundImageFix" result="effect1_dropShadow_24_196"/>
<feBlend mode="normal" in="SourceGraphic" in2="effect1_dropShadow_24_196" result="shape"/>
</filter>
<linearGradient id="paint0_linear_24_196" x1="29.4998" y1="50.9313" x2="29.4998" y2="0.897461" gradientUnits="userSpaceOnUse">
<stop stop-color="#1FAF38"/>
<stop offset="1" stop-color="#60D669"/>
</linearGradient>
<linearGradient id="paint1_linear_24_196" x1="29.5" y1="51.8281" x2="29.5" y2="0" gradientUnits="userSpaceOnUse">
<stop stop-color="#F9F9F9"/>
<stop offset="1" stop-color="white"/>
</linearGradient>
<clipPath id="clip0_24_196">
<rect width="59" height="59" fill="white"/>
</clipPath>
</defs>
</svg>
